<svg version="1.1" xmlns="http://www.w3.org/2000/svg" xmlns:xlink="http://www.w3.org/1999/xlink" width="418.78px" height="103.65px" viewBox="0,0,256,63.35938"><g fill="#2c2c2c" fill-rule="nonzero" stroke="none" stroke-width="1" stroke-linecap="butt" stroke-linejoin="miter" stroke-miterlimit="10" stroke-dasharray="" stroke-dashoffset="0" font-family="none" font-weight="none" font-size="none" text-anchor="none" style="mix-blend-mode: normal"><g transform="translate(0.19867,0.6868) scale(0.6113,0.6113)"><path d="M10.13,11.55h11.93l8.22,-1.37l6.07,1.37h4.89l10.37,-0.68l9.39,0.68l5.48,-0.68l8.02,2.45l14.09,-1.57l10.57,-1.57h10.17l11.74,1.57l8.22,-1.57h12.71l11.54,1.57h22.11l7.04,-3.13l9.2,-1.17h9.39l8.22,1.17h14.67l12.72,-1.17l11.41,0.91l12.26,-0.33l8.67,-1.17l13.11,1.5c0,0 12.78,-1.37 13.24,-1.5c0.46,-0.13 16.44,-1.86 16.44,-1.86l9.59,0.59l16.43,1.86c0,0 3.72,-0.98 4.5,-1.08c0.78,-0.1 15.75,-0.49 15.75,-0.49l5.67,1.86l6.36,-0.49c0,0 1.08,-1.27 1.57,-1.08c0.49,0.19 1.66,1.47 1.96,1.47c0.29,0 3.03,-1.17 3.03,-1.17l16.04,0.78l7.83,0.2l9.68,-0.2c0,0 -1.47,12.72 -1.37,13.01c0.1,0.29 0.78,8.32 0.78,8.32l0.59,6.95l-1.27,5.77l0.79,26.7l0.49,6.46l-0.78,3.62l0.78,3.82v4.7l0.98,8.51h-6.46l-1.76,-1.57l-2.54,1.57h-6.26h-2.54h-4.11l-0.2,-1.37h-7.63l-7.24,1.37l-9,-0.98h-8.22l-3.13,-1.96l-8.8,1.96l-16.57,-3.2l-5.22,1.3l-8.61,0.52l-11.22,-1.83l-7.83,2.61l-4.7,0.26h-3.13l-5.74,1.3l-17.22,-1.57l-2.61,-0.52l-1.57,2.09h-11.22l-13.57,-1.04l-22.7,1.04l-24.26,-1.3l-9.13,1.3l-2.87,1.3l-12,-2.09l-40.96,0.52l-19.57,1.57l-9.39,-1.3l-7.04,-0.78h-11.18l-6,0.52l-15.65,1.57l-6.26,-1.57l-9.39,1.57h-7.04l-9.1,-0.72l-7.34,-0.29l-7.73,-0.98v-16.73l1.66,-15.46l-0.78,-1.76l-0.88,-2.93l0.88,-9.39l0.2,-9.59l-1.08,-7.43l1.08,-4.7l0.2,-5.09l-1.27,-3.91v-6.07z"></path></g></g></svg>