<svg version="1.1" xmlns="http://www.w3.org/2000/svg" xmlns:xlink="http://www.w3.org/1999/xlink" width="96.22px" height="94.78px" viewBox="0,0,256,252.15625"><g fill="#2c2c2c" fill-rule="nonzero" stroke="none" stroke-width="1" stroke-linecap="butt" stroke-linejoin="miter" stroke-miterlimit="10" stroke-dasharray="" stroke-dashoffset="0" font-family="none" font-weight="none" font-size="none" text-anchor="none" style="mix-blend-mode: normal"><g transform="translate(0,-0.84434) scale(2.66057,2.66057)"><path d="M3.33,8.55h2.69l1.85,-1.37l1.37,1.37h1.1l2.34,-0.68l2.12,0.68l1.23,-0.68l1.81,2.45l3.17,-1.57l2.38,-1.57h2.29l2.65,1.57l1.85,-1.57h2.87l2.6,1.57h4.98l1.59,-3.13l2.07,-1.17h2.12l1.85,1.17h3.31l2.87,-1.17l2.57,0.91l2.76,-0.33l1.95,-1.17l2.95,1.5c0,0 2.88,-1.37 2.98,-1.5c0.1,-0.13 3.7,-1.86 3.7,-1.86l2.16,0.59l3.7,1.86c0,0 0.84,-0.98 1.01,-1.08c0.18,-0.1 3.55,-0.49 3.55,-0.49l1.28,1.86l1.43,-0.49c0,0 0.24,-1.27 0.35,-1.08c0.11,0.2 0.37,1.47 0.44,1.47c0.07,0 0.68,-1.17 0.68,-1.17l3.62,0.78l1.76,0.2l2.18,-0.2c0,0 -0.33,12.72 -0.31,13.01c0.02,0.29 0.18,8.32 0.18,8.32l0.13,6.95l-0.29,5.77l0.18,26.71l0.11,6.46l-0.18,3.62l0.18,3.82v4.7l0.22,8.51h-1.46l-0.4,-1.57l-0.57,1.57h-1.41h-0.57h-0.93l-0.04,-1.37h-1.72l-1.63,1.37l-2.03,-0.98h-1.85l-0.71,-1.96l-1.98,1.96l-3.73,-3.2l-1.18,1.3l-1.94,0.52l-2.53,-1.83l-1.76,2.61l-1.06,0.26h-0.71l-1.29,1.3l-3.88,-1.57l-0.59,-0.52l-0.35,2.09h-2.53l-3.06,-1.04l-5.11,1.04l-5.47,-1.3l-2.06,1.3l-0.65,1.3l-2.7,-2.09l-9.23,0.52l-4.41,1.57l-2.12,-1.3l-1.59,-0.78h-2.53l-1.35,0.52l-3.53,1.57l-1.41,-1.57l-2.12,1.57h-1.59l-2.05,-0.72l-1.65,-0.29l-1.74,-0.98v-16.73l0.37,-15.46l-0.18,-1.76l-0.2,-2.93l0.2,-9.39l0.04,-9.59l-0.24,-7.43l0.24,-4.7l0.04,-5.09l-0.29,-3.91v-6.07z"></path></g></g></svg>