<?xml version="1.0" encoding="utf-8"?>
<!-- Generator: Adobe Illustrator 26.0.1, SVG Export Plug-In . SVG Version: 6.00 Build 0)  -->
<svg version="1.1" id="Слой_1" xmlns="http://www.w3.org/2000/svg" xmlns:xlink="http://www.w3.org/1999/xlink" x="0px" y="0px"
	 viewBox="0 0 1080 1920" style="enable-background:new 0 0 1080 1920;" xml:space="preserve">
<style type="text/css">
	.st0{fill:#1EFE5E;}
</style>
<path class="st0" d="M430.26,785.57c0,0-43.83,10.17-82.96,57.65c0,0,15.13-3.65,21.65-6.78c0,0-24.26,22.96-33.13,75.91
	c0,0,10.43-5.22,19.04-14.61c0,0,4.96,100.17,132.26,201.39c0,0-86.09-103.57-95.28-167.93c0,0,9.59-6.59,35.54-32.15
	c0,0-19.43,0.13-33,9.91c0,0,20.15-28.43,72.2-44.48c0,0-28.96-13.5-75.91,17.22C390.67,881.7,380.83,855.74,430.26,785.57z"/>
<path class="st0" d="M570.09,833.04l-40.43-21.91c10.96-23.48,15.91-50.09,15.91-50.09c-14.61,13.3-28.43,21.39-28.43,21.39v-47.48
	c-88.7,45.91-117.46,126.98-117.46,126.98c47.41-20.67,79.37-7.5,79.37-7.5c-11.22-6.52-19.04-18-19.04-18
	c19.83,3.39,42.52,17.48,42.52,17.48l25.3-24.52l36,15.91c4.17,14.35,26.87,47.48,26.87,47.48L570.09,833.04z M503.04,785.57
	l-42.78,7.83l42.78-39.65V785.57z"/>
<polygon class="st0" points="428.96,918.87 495.18,914.96 579.22,961.91 617.57,936.87 619.13,924.87 636.35,930.35 636.35,940.52 
	578.7,968.96 499.65,931.91 434.17,960 479.04,927.74 "/>
<path class="st0" d="M335.83,742.78c0,0,125.87-59.09,333.26,0c0,0,3.13,99.78-28.17,174.91h-6.26c0,0,28.57-100.17,22.7-161.22
	c0,0-131.87-55.96-318.52-9.78L335.83,742.78z"/>
<path class="st0" d="M518.43,1093.78c0,0,69.26-71.22,77.87-90.78C596.3,1003,583.39,1046.43,518.43,1093.78z"/>
<path class="st0" d="M532.65,853.39l22.57,9.91l10.17,26.87L552.35,880c0,0-12.64,1.64-9.13-9.39"/>
<g id="Слой_2">
	<g>
		<path class="st0" d="M503.04,606.26c40.72,0,80.2,7.97,117.36,23.68c35.9,15.19,68.15,36.93,95.85,64.63
			c27.7,27.7,49.44,59.95,64.63,95.85c15.72,37.16,23.68,76.64,23.68,117.36s-7.97,80.2-23.68,117.36
			c-15.19,35.9-36.93,68.15-64.63,95.85c-27.7,27.7-59.95,49.44-95.85,64.63c-37.16,15.72-76.64,23.68-117.36,23.68
			s-80.2-7.97-117.36-23.68c-35.9-15.19-68.15-36.93-95.85-64.63c-27.7-27.7-49.44-59.95-64.63-95.85
			c-15.72-37.16-23.68-76.64-23.68-117.36s7.97-80.2,23.68-117.36c15.19-35.9,36.93-68.15,64.63-95.85
			c27.7-27.7,59.95-49.44,95.85-64.63C422.84,614.23,462.33,606.26,503.04,606.26 M503.04,580.26
			c-180.89,0-327.52,146.64-327.52,327.52s146.64,327.52,327.52,327.52s327.52-146.64,327.52-327.52S683.93,580.26,503.04,580.26
			L503.04,580.26z"/>
	</g>
</g>
</svg>
